<svg xmlns="http://www.w3.org/2000/svg" width="14" height="11" viewBox="0 0 14 11">
  <defs>
    <style>
      .cls-1 {
        fill: #fff;
        fill-rule: evenodd;
      }
    </style>
  </defs>
  <path class="cls-1" d="M446.223,6728.03a13.113,13.113,0,0,1-1.856-.14,8.915,8.915,0,0,1-2.538-.89l-0.829-.43,0.9-.29c0.982-.31,1.579-0.5,2.318-0.8a2.981,2.981,0,0,1-1.585-1.76l-0.209-.61,0.171,0.02a2.525,2.525,0,0,1-.39-0.46,2.722,2.722,0,0,1-.5-1.68l0.039-.54,0.332,0.13a3.052,3.052,0,0,1-.3-0.81,2.97,2.97,0,0,1,.342-2.07l0.288-.51,0.387,0.45a7.187,7.187,0,0,0,4.6,2.48,2.538,2.538,0,0,1,.167-1.4,2.715,2.715,0,0,1,1.114-1.23,3.5,3.5,0,0,1,1.941-.45,3.155,3.155,0,0,1,1.906.75,6.165,6.165,0,0,0,.7-0.22c0.153-.06.327-0.12,0.544-0.19l0.8-.27-0.521,1.43h0.107l0.854-.04-0.5.66a0.451,0.451,0,0,0-.046.07c-0.041.05-.092,0.13-0.785,1.02a1.207,1.207,0,0,0-.244.81,7.46,7.46,0,0,1-.438,3.11,5.51,5.51,0,0,1-1.536,2.18,6.962,6.962,0,0,1-3.215,1.49,9.984,9.984,0,0,1-2.008.19h0Zm0,0" transform="translate(-441 -6717.03)"/>
</svg>
