<svg xmlns="http://www.w3.org/2000/svg" width="21" height="12" viewBox="0 0 21 12">
  <defs>
    <style>
      .cls-1 {
        fill: #fff;
        fill-rule: evenodd;
      }
    </style>
  </defs>
  <path class="cls-1" d="M509.1,6720.6h-1.914v1.74h-1.9v1.75h1.9v1.74H509.1v-1.74H511v-1.75h-1.9v-1.74Zm0,0-12.533,8.4c3.787,0,6.3-2.43,6.3-5.86a4.664,4.664,0,0,0-.107-1h-6.195v2.06h3.725a3.482,3.482,0,0,1-3.725,2.59,3.8,3.8,0,1,1,0-7.58,3.9,3.9,0,0,1,2.615.92l1.781-1.56a6.613,6.613,0,0,0-4.4-1.57,6.024,6.024,0,1,0,0,12h0Zm0,0" transform="translate(-490 -6717)"/>
</svg>
