<svg xmlns="http://www.w3.org/2000/svg" width="18.032" height="12" viewBox="0 0 18.032 12">
  <defs>
    <style>
      .cls-1 {
        fill: #fff;
        fill-rule: evenodd;
      }
    </style>
  </defs>
  <path class="cls-1" d="M560.538,6718.87l0.023,0.14a2.2,2.2,0,0,0-1.555-1.49l-0.015-.01a58.292,58.292,0,0,0-7.066-.35,56.4,56.4,0,0,0-7.066.35,2.229,2.229,0,0,0-1.565,1.48l0,0.02a22.181,22.181,0,0,0,.023,8.43l-0.023-.14a2.2,2.2,0,0,0,1.554,1.49l0.016,0.01a69.515,69.515,0,0,0,14.131,0,2.23,2.23,0,0,0,1.567-1.48l0-.02a20.777,20.777,0,0,0,.375-3.98V6723a21.421,21.421,0,0,0-.4-4.13h0Zm-10.419,6.86v-5.15l4.71,2.58Zm0,0" transform="translate(-542.906 -6717.16)"/>
</svg>
