<svg xmlns="http://www.w3.org/2000/svg" width="16" height="16" viewBox="0 0 16 16">
  <defs>
    <style>
      .cls-1 {
        fill: #fca901;
        fill-rule: evenodd;
      }
    </style>
  </defs>
  <path class="cls-1" d="M13.34,10.045a7.424,7.424,0,0,0-2.4-1.613A4.428,4.428,0,0,0,8.054.645H7.994A4.425,4.425,0,0,0,5.167,8.431,7.49,7.49,0,0,0,.6,14.694a0.821,0.821,0,1,0,1.637.136,5.837,5.837,0,0,1,11.63,0,0.822,0.822,0,0,0,1.423.491,0.827,0.827,0,0,0,.214-0.626A7.458,7.458,0,0,0,13.34,10.045Zm-2.5-5.066a2.762,2.762,0,0,1-.812,2.058,2.714,2.714,0,0,1-2.068.818,2.792,2.792,0,0,1-2.7-2.691A2.792,2.792,0,0,1,8.145,2.289,2.79,2.79,0,0,1,10.84,4.979Z"/>
</svg>
