<svg xmlns="http://www.w3.org/2000/svg" width="19" height="15" viewBox="0 0 19 15">
  <defs>
    <style>
      .cls-1 {
        fill: #fca901;
        fill-rule: evenodd;
      }
    </style>
  </defs>
  <path class="cls-1" d="M11.212,10.179a6.733,6.733,0,0,0,2.72-1.987,4.258,4.258,0,0,0,0-5.475A6.733,6.733,0,0,0,11.212.731,9.5,9.5,0,0,0,7.465,0a9.506,9.506,0,0,0-3.748.73A6.734,6.734,0,0,0,1,2.717,4.313,4.313,0,0,0,0,5.455,4.2,4.2,0,0,0,.753,7.841,6.2,6.2,0,0,0,2.821,9.726C2.75,9.9,2.677,10.053,2.6,10.2a2.7,2.7,0,0,1-.266.41q-0.153.2-.238,0.309a4.1,4.1,0,0,1-.276.314q-0.191.2-.244,0.267a0.091,0.091,0,0,0-.042.048,0.136,0.136,0,0,1-.048.054,0.116,0.116,0,0,0-.042.053l-0.037.059-0.027.053a0.239,0.239,0,0,0-.021.064,0.444,0.444,0,0,0-.005.069,0.221,0.221,0,0,0,.01.069,0.357,0.357,0,0,0,.122.224,0.332,0.332,0,0,0,.217.085H1.739A8.691,8.691,0,0,0,2.651,12.1,8.879,8.879,0,0,0,5.6,10.737a10.565,10.565,0,0,0,1.866.171,9.5,9.5,0,0,0,3.748-.729h0Zm-5.932-.89-0.467.33q-0.3.2-.657,0.415L4.528,9.14,3.5,8.544a4.886,4.886,0,0,1-1.58-1.406,2.918,2.918,0,0,1-.562-1.684A3.033,3.033,0,0,1,2.19,3.42a5.679,5.679,0,0,1,2.242-1.5,8.212,8.212,0,0,1,3.032-.554,8.214,8.214,0,0,1,3.032.554,5.683,5.683,0,0,1,2.242,1.5,3.033,3.033,0,0,1,.833,2.034,3.033,3.033,0,0,1-.833,2.034,5.68,5.68,0,0,1-2.242,1.5,8.231,8.231,0,0,1-3.032.553A9.187,9.187,0,0,1,5.842,9.4Zm0,0,12.967,1.283A4.174,4.174,0,0,0,18.2,5.731a6.289,6.289,0,0,0-2.163-1.9,5.5,5.5,0,0,1-.466,4.325,7.115,7.115,0,0,1-2.036,2.258,9.378,9.378,0,0,1-2.8,1.374,11.165,11.165,0,0,1-3.276.479q-0.317,0-.933-0.042a8.88,8.88,0,0,0,5,1.406,10.573,10.573,0,0,0,1.866-.171,8.878,8.878,0,0,0,2.947,1.364,8.928,8.928,0,0,0,.912.171,0.321,0.321,0,0,0,.233-0.075,0.392,0.392,0,0,0,.138-0.234,0.074,0.074,0,0,1,.011-0.069c0.01,0,.008-0.027-0.005-0.069l-0.022-.064-0.026-.054a0.473,0.473,0,0,0-.038-0.057,0.461,0.461,0,0,0-.043-0.054c-0.01-.01-0.026-0.027-0.048-0.053s-0.035-.041-0.042-0.048q-0.053-.065-0.244-0.266a4.117,4.117,0,0,1-.276-0.315q-0.085-.111-0.238-0.309a2.7,2.7,0,0,1-.265-0.411q-0.112-.212-0.217-0.468a6.239,6.239,0,0,0,2.067-1.881h0Zm0,0"/>
</svg>
