<svg viewBox="0 0 51 51" width="51" height="51">
	<path id="Icon" class="shp0" d="M37.25 39.57C37.68 39.57 38.03 39.21 38.03 38.77L38.03 37.17C38.03 36.73 37.68 36.37 37.25 36.37C36.82 36.37 36.47 36.73 36.47 37.17L36.47 38.77C36.47 39.21 36.82 39.57 37.25 39.57ZM33.33 38.77L33.33 40.37C33.33 40.81 33.68 41.17 34.12 41.17C34.55 41.17 34.9 40.81 34.9 40.37L34.9 38.77C34.9 38.33 34.55 37.97 34.12 37.97C33.68 37.97 33.33 38.33 33.33 38.77ZM22.17 22.51C22.48 22.2 22.48 21.69 22.17 21.38C22.17 21.38 22.17 21.38 22.17 21.38C21.87 21.07 21.37 21.07 21.07 21.38C20.76 21.69 20.76 22.2 21.07 22.51C21.37 22.82 21.87 22.82 22.17 22.51ZM28.82 13.46C28.52 13.78 28.52 14.28 28.82 14.6C28.82 14.6 28.82 14.6 28.82 14.6C29.13 14.91 29.62 14.91 29.93 14.6C30.24 14.28 30.24 13.78 29.93 13.46C29.62 13.15 29.13 13.15 28.82 13.46ZM22.17 14.6L22.17 14.6C22.48 14.28 22.48 13.78 22.17 13.46C21.87 13.15 21.37 13.15 21.07 13.46C20.76 13.78 20.76 14.28 21.07 14.6C21.37 14.91 21.87 14.91 22.17 14.6ZM28.82 21.38C28.82 21.38 28.82 21.38 28.82 21.38C28.52 21.69 28.52 22.2 28.82 22.51C29.13 22.82 29.62 22.82 29.93 22.51C30.24 22.2 30.24 21.69 29.93 21.38C29.62 21.07 29.13 21.07 28.82 21.38ZM19.23 17.99C19.23 18.43 19.58 18.79 20.01 18.79C20.45 18.79 20.8 18.43 20.8 17.99C20.8 17.55 20.45 17.19 20.01 17.19C19.58 17.19 19.23 17.55 19.23 17.99ZM31.77 17.99C31.77 17.55 31.41 17.19 30.98 17.19C30.55 17.19 30.2 17.55 30.2 17.99C30.2 18.43 30.55 18.79 30.98 18.79C31.41 18.79 31.77 18.43 31.77 17.99ZM25.5 13.19C25.93 13.19 26.28 12.83 26.28 12.39C26.28 11.95 25.93 11.59 25.5 11.59C25.07 11.59 24.72 11.95 24.72 12.39C24.72 12.83 25.07 13.19 25.5 13.19ZM25.5 24.38C25.93 24.38 26.28 24.02 26.28 23.58C26.28 23.14 25.93 22.78 25.5 22.78C25.07 22.78 24.72 23.14 24.72 23.58C24.72 24.02 25.07 24.38 25.5 24.38ZM26.51 20.15C26.66 20.3 26.86 20.39 27.07 20.39C27.5 20.38 27.85 20.03 27.85 19.59C27.85 19.37 27.77 19.17 27.62 19.02L26.28 17.66L26.28 15.59C26.28 15.15 25.93 14.79 25.5 14.79C25.07 14.79 24.72 15.15 24.72 15.59L24.72 17.99C24.72 18.2 24.8 18.4 24.94 18.55L26.51 20.15ZM25.5 9.19C25.93 9.19 26.28 8.84 26.28 8.39L26.28 4.4C26.28 3.96 25.93 3.6 25.5 3.6C25.07 3.6 24.72 3.96 24.72 4.4L24.72 8.39C24.72 8.84 25.07 9.19 25.5 9.19ZM22.36 4.4C22.8 4.4 23.15 4.04 23.15 3.6L23.15 2.8C23.15 2.36 22.8 2 22.36 2C21.93 2 21.58 2.36 21.58 2.8L21.58 3.6C21.58 4.04 21.93 4.4 22.36 4.4ZM48.61 26.72L41.95 22.78L48.61 18.85C48.85 18.7 49 18.44 49 18.16C49 17.87 48.85 17.61 48.61 17.46L45.47 15.61C45.09 15.4 44.62 15.55 44.41 15.94C44.22 16.31 44.34 16.77 44.69 17L46.65 18.16L40.38 21.86L35.38 18.9C35.22 18.81 35.04 18.78 34.86 18.82C34.88 18.54 34.9 18.26 34.9 17.98C34.91 15.37 33.86 12.87 32.01 11.06L33.33 10.29L39.42 13.88C39.79 14.12 40.27 14.01 40.5 13.64C40.73 13.26 40.63 12.77 40.26 12.53C40.24 12.52 40.22 12.51 40.2 12.5L33.72 8.67C33.48 8.53 33.18 8.53 32.94 8.67L30.7 9.99C30.29 9.72 29.86 9.47 29.42 9.26L29.42 8.39C29.42 7.95 29.06 7.6 28.63 7.6C28.2 7.6 27.85 7.95 27.85 8.39L27.85 9.79C27.85 10.12 28.05 10.42 28.35 10.54C29 10.8 29.62 11.15 30.18 11.58L30.19 11.59C33.66 14.24 34.36 19.25 31.77 22.78C29.18 26.31 24.27 27.03 20.8 24.39C18.83 22.88 17.66 20.51 17.66 17.99C17.67 14.86 19.45 12.03 22.23 10.72C22.37 10.65 22.51 10.59 22.65 10.54C22.95 10.42 23.15 10.12 23.15 9.79L23.15 6C23.15 5.55 22.8 5.2 22.36 5.2C21.93 5.2 21.58 5.55 21.58 6L21.58 9.26L21.58 9.26C21.13 9.47 20.71 9.72 20.3 9.99L18.06 8.67C17.81 8.53 17.52 8.53 17.27 8.67L2.39 17.46C2.01 17.69 1.89 18.18 2.1 18.56C2.17 18.68 2.27 18.78 2.39 18.85L9.05 22.78L2.39 26.72C2.01 26.94 1.89 27.43 2.1 27.81C2.17 27.93 2.27 28.03 2.39 28.1L9.83 32.5L9.83 40.37C9.83 40.66 9.98 40.92 10.22 41.06L25.11 49.85C25.12 49.87 25.15 49.87 25.16 49.88C25.18 49.89 25.21 49.9 25.23 49.91C25.4 49.98 25.6 49.98 25.77 49.91C25.79 49.9 25.81 49.89 25.83 49.88C25.86 49.87 25.87 49.87 25.89 49.85L40.78 41.06C41.02 40.92 41.17 40.65 41.17 40.37L41.17 32.5L48.61 28.1C48.98 27.88 49.11 27.39 48.89 27.01C48.82 26.89 48.73 26.79 48.61 26.72ZM4.35 18.16L17.66 10.29L19 11.07C17.15 12.88 16.1 15.38 16.1 17.99C16.1 18.27 16.12 18.55 16.14 18.82C16.06 18.8 15.99 18.8 15.91 18.8C15.81 18.82 15.71 18.85 15.61 18.91L10.61 21.86L4.35 18.16ZM4.35 27.41L10.61 23.71L18.34 28.27C18.71 28.51 19.19 28.4 19.42 28.03C19.65 27.65 19.55 27.16 19.18 26.92C19.16 26.91 19.14 26.9 19.12 26.89L12.18 22.78L16.39 20.3C17.63 25.43 22.72 28.57 27.75 27.3C31.14 26.45 33.78 23.75 34.61 20.3L38.82 22.78L25.5 30.65L21.83 28.49C21.45 28.28 20.97 28.43 20.77 28.82C20.59 29.19 20.7 29.65 21.05 29.87L23.94 31.58L17.67 35.28L4.35 27.41ZM39.6 39.91L26.28 47.78L26.28 45.97C26.28 45.52 25.93 45.17 25.5 45.17C25.07 45.17 24.72 45.52 24.72 45.97L24.72 47.78L11.4 39.91L11.4 33.42L17.27 36.9C17.52 37.04 17.81 37.04 18.06 36.9L24.72 32.96L24.72 42.77C24.72 43.21 25.07 43.57 25.5 43.57C25.93 43.57 26.28 43.21 26.28 42.77L26.28 32.96L32.94 36.9C33.18 37.04 33.48 37.04 33.72 36.9L39.6 33.42L39.6 39.91ZM33.33 35.28L27.07 31.58L40.38 23.71L46.65 27.41L33.33 35.28ZM41.56 15.14L42.34 15.61C42.72 15.81 43.2 15.66 43.4 15.27C43.59 14.9 43.47 14.45 43.12 14.22L42.34 13.76C41.96 13.56 41.48 13.71 41.28 14.1C41.1 14.47 41.21 14.92 41.56 15.14ZM28.63 6C29.06 6 29.42 5.64 29.42 5.2L29.42 3.6C29.42 3.16 29.06 2.8 28.63 2.8C28.2 2.8 27.85 3.16 27.85 3.6L27.85 5.2C27.85 5.64 28.2 6 28.63 6Z" />
</svg>