<svg viewBox="0 0 48 44" width="48" height="44">
	<path id="Icon" class="shp0" d="M44.81 21.18L44.81 20.7C44.81 15.83 43.07 11.09 39.91 7.36C36.78 3.68 32.45 1.18 27.72 0.33C27.21 0.24 26.72 0.58 26.63 1.08C26.54 1.59 26.88 2.07 27.39 2.17C36.4 3.79 42.94 11.58 42.94 20.7L42.94 20.98L41.06 20.98L41.06 20.7C41.06 11.34 33.41 3.73 24 3.73C14.59 3.73 6.94 11.34 6.94 20.7L6.94 20.98L5.06 20.98L5.06 20.7C5.06 11.46 11.7 3.65 20.85 2.12C21.36 2.04 21.7 1.56 21.62 1.05C21.53 0.54 21.05 0.2 20.54 0.29C15.75 1.09 11.36 3.57 8.18 7.27C4.96 11.01 3.19 15.78 3.19 20.7L3.19 21.18C1.34 21.75 0 23.46 0 25.47L0 31.77C0 34.25 2.03 36.27 4.52 36.27L7.16 36.27C7.65 37.08 8.54 37.62 9.56 37.62C11.11 37.62 12.37 36.36 12.37 34.82L12.37 22.42C12.37 20.88 11.11 19.63 9.56 19.63C9.31 19.63 9.07 19.66 8.85 19.72C9.35 11.84 15.96 5.59 24 5.59C32.04 5.59 38.65 11.84 39.15 19.72C38.93 19.66 38.69 19.63 38.44 19.63C36.89 19.63 35.62 20.88 35.62 22.42L35.62 24.75C35.62 25.26 36.04 25.68 36.56 25.68C37.08 25.68 37.5 25.26 37.5 24.75L37.5 22.42C37.5 21.91 37.92 21.49 38.44 21.49C38.95 21.49 39.37 21.91 39.37 22.42L39.37 34.5L39.37 34.82C39.37 35.34 38.95 35.75 38.44 35.75C37.92 35.75 37.5 35.34 37.5 34.82L37.5 32.67C37.5 32.16 37.08 31.74 36.56 31.74C36.04 31.74 35.62 32.16 35.62 32.67L35.62 34.82C35.62 36.36 36.89 37.62 38.44 37.62C38.77 37.62 39.08 37.56 39.37 37.46L39.37 38.07C39.37 39.08 38.55 39.9 37.53 39.9L28.93 39.9C28.53 38.6 27.32 37.66 25.89 37.66L22.14 37.66C20.38 37.66 18.95 39.08 18.95 40.83C18.95 42.58 20.38 44 22.14 44L25.89 44C27.32 44 28.53 43.06 28.93 41.76L37.53 41.76C39.58 41.76 41.25 40.1 41.25 38.07L41.25 36.27L43.48 36.27C45.97 36.27 48 34.25 48 31.77L48 25.48C48 23.46 46.66 21.75 44.81 21.18ZM6.75 34.4L4.52 34.4C3.06 34.4 1.87 33.22 1.87 31.77L1.87 25.47C1.87 24.02 3.06 22.84 4.52 22.84L6.75 22.84L6.75 34.4ZM9.56 21.49C10.08 21.49 10.5 21.91 10.5 22.42L10.5 34.82C10.5 35.34 10.08 35.75 9.56 35.75C9.05 35.75 8.62 35.34 8.62 34.82L8.62 22.42C8.62 21.91 9.05 21.49 9.56 21.49ZM25.89 42.13L22.14 42.13C21.41 42.13 20.82 41.55 20.82 40.83C20.82 40.11 21.41 39.52 22.14 39.52L25.89 39.52C26.61 39.52 27.2 40.11 27.2 40.83C27.2 41.55 26.61 42.13 25.89 42.13ZM46.12 31.77C46.12 33.22 44.94 34.4 43.48 34.4L41.25 34.4L41.25 22.84L43.48 22.84C44.94 22.84 46.12 24.02 46.12 25.48L46.12 31.77ZM24 1.86L24.07 1.86C24.08 1.86 24.08 1.86 24.08 1.86C24.59 1.86 25.01 1.45 25.02 0.94C25.02 0.42 24.6 0 24.08 0L24 0C23.48 0 23.06 0.42 23.06 0.93C23.06 1.45 23.48 1.86 24 1.86ZM36.56 29.55C36.81 29.55 37.05 29.45 37.23 29.28C37.4 29.11 37.5 28.87 37.5 28.62C37.5 28.38 37.4 28.14 37.23 27.96C37.05 27.79 36.81 27.69 36.56 27.69C36.32 27.69 36.07 27.79 35.9 27.96C35.73 28.14 35.62 28.38 35.62 28.62C35.62 28.87 35.73 29.11 35.9 29.28C36.07 29.45 36.32 29.55 36.56 29.55ZM23.26 33.04C23.44 33.26 23.7 33.39 23.99 33.39C23.99 33.39 23.99 33.39 23.99 33.39C24.27 33.39 24.54 33.27 24.71 33.05L26.91 30.41L29.45 30.41C31.82 30.41 33.75 28.5 33.75 26.14L33.75 20.69C33.75 18.33 31.82 16.41 29.45 16.41L18.55 16.41C16.18 16.41 14.25 18.33 14.25 20.69L14.25 26.14C14.25 28.5 16.18 30.41 18.55 30.41L21.14 30.41L23.26 33.04ZM16.12 26.14L16.12 20.69C16.12 19.36 17.21 18.28 18.55 18.28L29.45 18.28C30.79 18.28 31.87 19.36 31.87 20.69L31.87 26.14C31.87 27.47 30.79 28.55 29.45 28.55L26.47 28.55C26.19 28.55 25.92 28.67 25.75 28.89L24 30.98L22.33 28.9C22.15 28.68 21.88 28.55 21.59 28.55L18.55 28.55C17.21 28.55 16.12 27.47 16.12 26.14ZM19.89 22.95C19.64 22.95 19.4 23.05 19.22 23.22C19.05 23.39 18.95 23.63 18.95 23.88C18.95 24.12 19.05 24.36 19.22 24.54C19.4 24.71 19.64 24.81 19.89 24.81C20.13 24.81 20.37 24.71 20.55 24.54C20.72 24.36 20.82 24.12 20.82 23.88C20.82 23.63 20.72 23.39 20.55 23.22C20.37 23.05 20.13 22.95 19.89 22.95ZM24.01 24.81C24.26 24.81 24.5 24.71 24.67 24.54C24.85 24.36 24.95 24.12 24.95 23.88C24.95 23.63 24.85 23.39 24.67 23.22C24.5 23.05 24.26 22.95 24.01 22.95C23.76 22.95 23.52 23.05 23.35 23.22C23.17 23.39 23.07 23.63 23.07 23.88C23.07 24.12 23.17 24.36 23.35 24.54C23.52 24.71 23.76 24.81 24.01 24.81ZM28.14 24.81C28.38 24.81 28.62 24.71 28.8 24.54C28.97 24.36 29.07 24.12 29.07 23.88C29.07 23.63 28.97 23.39 28.8 23.22C28.62 23.05 28.38 22.95 28.14 22.95C27.89 22.95 27.65 23.05 27.47 23.22C27.3 23.39 27.2 23.63 27.2 23.88C27.2 24.13 27.3 24.36 27.47 24.54C27.65 24.71 27.89 24.81 28.14 24.81Z" />
</svg>