<svg viewBox="0 0 47 48" width="47" height="48">
	<path id="Icon" class="shp0" d="M38.82 39.64C38.46 40.01 38.46 40.6 38.82 40.97C39 41.15 39.23 41.25 39.47 41.25C39.7 41.25 39.94 41.15 40.12 40.97L40.12 40.96C40.48 40.6 40.48 40.01 40.12 39.64C39.76 39.28 39.18 39.28 38.82 39.64ZM46.95 22.48C46.59 16.65 44.17 11.16 40.12 7.03C35.68 2.5 29.78 0 23.5 0C17.52 0 11.87 2.27 7.52 6.41L6.52 5.47C6.25 5.22 5.86 5.16 5.53 5.31C5.19 5.46 4.98 5.79 4.98 6.16L4.98 13.17C4.98 13.69 5.39 14.11 5.9 14.11L12.76 14.11C13.13 14.11 13.46 13.89 13.6 13.54C13.75 13.2 13.68 12.8 13.43 12.53L11.81 10.78C18.65 4.47 29.24 4.67 35.83 11.4C42.63 18.35 42.63 29.65 35.83 36.6C32.54 39.96 28.16 41.81 23.5 41.81C18.84 41.81 14.46 39.96 11.17 36.6C7.87 33.23 6.06 28.76 6.06 24C6.06 23.48 5.65 23.06 5.14 23.06L0.92 23.06C0.41 23.06 0 23.48 0 24C0 30.41 2.44 36.44 6.88 40.97C10.9 45.08 16.24 47.56 21.91 47.94C22.44 47.98 22.97 48 23.5 48C28.56 48 33.51 46.33 37.56 43.23C37.97 42.92 38.05 42.33 37.75 41.92C37.45 41.5 36.87 41.42 36.46 41.73C27.91 48.27 15.75 47.37 8.18 39.64C4.31 35.69 2.08 30.5 1.85 24.94L4.24 24.94C4.47 29.84 6.44 34.42 9.87 37.92C17.38 45.6 29.62 45.6 37.13 37.92C44.65 30.25 44.65 17.75 37.13 10.08C29.62 2.4 17.38 2.4 9.87 10.08C9.52 10.44 9.51 11.01 9.85 11.38L10.63 12.23L6.82 12.23L6.82 8.29L6.91 8.38C7.27 8.72 7.83 8.71 8.18 8.36C12.27 4.18 17.71 1.87 23.5 1.87C29.29 1.87 34.73 4.18 38.82 8.36C46.46 16.16 47.29 28.65 40.74 37.41C40.43 37.82 40.51 38.4 40.91 38.72C41.31 39.03 41.89 38.95 42.2 38.54C45.62 33.96 47.31 28.26 46.95 22.48ZM10.77 27.27C10.45 27.5 10.31 27.93 10.43 28.32C10.55 28.7 10.9 28.97 11.3 28.97L16.65 28.97C17.16 28.97 17.57 28.55 17.57 28.03C17.57 27.51 17.16 27.09 16.65 27.09L13.87 27.09C13.99 26.98 14.12 26.86 14.24 26.74C15.98 25.03 16.82 23.59 16.82 22.32C16.82 20.35 15.53 19.03 13.6 19.03C11.83 19.03 10.38 20.5 10.38 22.32C10.38 22.83 10.8 23.25 11.3 23.25C11.81 23.25 12.22 22.83 12.22 22.32C12.22 21.54 12.84 20.91 13.6 20.91C14.98 20.91 14.98 21.97 14.98 22.32C14.98 23.62 12.52 26 10.77 27.27ZM21.72 20.43C21.97 19.98 21.81 19.41 21.37 19.15C20.93 18.9 20.37 19.05 20.12 19.5L17.28 24.61C17.11 24.9 17.12 25.26 17.28 25.55C17.44 25.84 17.75 26.02 18.07 26.02L20.92 26.02L20.92 28.03C20.92 28.55 21.33 28.97 21.84 28.97C22.34 28.97 22.75 28.55 22.75 28.03L22.75 26.02L23.38 26.02C23.89 26.02 24.3 25.6 24.3 25.08C24.3 24.56 23.89 24.14 23.38 24.14L22.75 24.14L22.75 23.87C22.75 23.36 22.34 22.94 21.84 22.94C21.33 22.94 20.92 23.36 20.92 23.87L20.92 24.14L19.65 24.14L21.72 20.43ZM25.78 28.97C26.15 28.97 26.5 28.74 26.64 28.37L29.68 20.3C29.86 19.82 29.62 19.28 29.15 19.09C28.68 18.91 28.15 19.15 27.96 19.63L24.93 27.69C24.74 28.18 24.98 28.72 25.45 28.91C25.56 28.95 25.67 28.97 25.78 28.97ZM32.44 28.91C32.55 28.95 32.65 28.97 32.76 28.97C33.13 28.97 33.48 28.74 33.62 28.36L36.56 20.3C36.66 20.01 36.62 19.69 36.45 19.43C36.28 19.18 36 19.03 35.7 19.03L31.84 19.03C31.34 19.03 30.92 19.45 30.92 19.97C30.92 20.49 31.34 20.91 31.84 20.91L34.38 20.91L31.9 27.7C31.72 28.19 31.97 28.73 32.44 28.91Z" />
</svg>