<svg xmlns="http://www.w3.org/2000/svg" viewBox="0 0 63 43" width="63" height="43">
	<style>
		tspan { white-space:pre }
		.shp0 { fill: #ffffff } 
	</style>
	<path id="Icon" class="shp0" d="M51.05 31.25C49.59 31.25 48.19 31.81 47.14 32.82C46.09 33.85 45.51 35.19 45.51 36.62C45.51 38.06 46.08 39.39 47.14 40.42C48.21 41.44 49.59 42 51.05 42C54.06 42 56.5 39.59 56.5 36.62C56.5 33.66 54.06 31.25 51.05 31.25L51.05 31.25ZM51.05 39.61C49.37 39.61 47.95 38.25 47.95 36.62C47.95 35 49.37 33.64 51.05 33.64C52.71 33.64 54.06 34.97 54.06 36.62C54.06 38.27 52.71 39.61 51.05 39.61L51.05 39.61ZM51.05 39.61M52.47 13.34C52.25 13.13 51.96 13.03 51.65 13.03L45.38 13.03C44.71 13.03 44.16 13.56 44.16 14.22L44.16 24.02C44.16 24.68 44.71 25.21 45.38 25.21L55.33 25.21C56 25.21 56.55 24.68 56.55 24.02L56.55 17.46C56.55 17.13 56.4 16.8 56.15 16.58L52.47 13.34ZM54.11 22.82L46.61 22.82L46.61 15.4L51.18 15.4L54.11 17.98L54.11 22.82ZM54.11 22.82M21.22 31.25C19.75 31.25 18.36 31.81 17.31 32.82C16.26 33.85 15.67 35.19 15.67 36.62C15.67 38.06 16.25 39.39 17.31 40.42C18.37 41.44 19.75 42 21.22 42C24.22 42 26.67 39.59 26.67 36.62C26.67 33.66 24.22 31.25 21.22 31.25L21.22 31.25ZM21.22 39.61C19.53 39.61 18.11 38.25 18.11 36.62C18.11 35 19.53 33.64 21.22 33.64C22.88 33.64 24.22 34.97 24.22 36.62C24.22 38.27 22.88 39.61 21.22 39.61L21.22 39.61ZM21.22 39.61M13.07 32.72L10.61 32.72L10.61 29.54C10.61 28.88 10.06 28.34 9.39 28.34C8.72 28.34 8.17 28.88 8.17 29.54L8.17 33.91C8.17 34.57 8.72 35.11 9.39 35.11L13.07 35.11C13.74 35.11 14.29 34.57 14.29 33.91C14.29 33.25 13.74 32.72 13.07 32.72L13.07 32.72ZM13.07 32.72M19.26 26.2C19.26 25.55 18.71 25.01 18.04 25.01L3.22 25.01C2.55 25.01 2 25.55 2 26.2C2 26.86 2.55 27.4 3.22 27.4L18.04 27.4C18.71 27.4 19.26 26.87 19.26 26.2L19.26 26.2ZM19.26 26.2M5.7 21.89L20.52 21.98C21.19 21.98 21.74 21.45 21.76 20.79C21.77 20.12 21.22 19.59 20.55 19.59L5.73 19.5L5.71 19.5C5.04 19.5 4.49 20.03 4.49 20.69C4.48 21.35 5.03 21.89 5.7 21.89L5.7 21.89ZM5.7 21.89M8.19 16.47L23.01 16.47C23.69 16.47 24.24 15.93 24.24 15.27C24.24 14.62 23.69 14.08 23.01 14.08L8.19 14.08C7.52 14.08 6.97 14.62 6.97 15.27C6.97 15.93 7.52 16.47 8.19 16.47L8.19 16.47ZM8.19 16.47M61.55 14.85L52.8 7.77C52.58 7.59 52.31 7.5 52.02 7.5L41.73 7.5L41.73 3.19C41.73 2.54 41.18 2 40.51 2L9.39 2C8.72 2 8.17 2.54 8.17 3.19L8.17 11.94C8.17 12.6 8.72 13.13 9.39 13.13C10.06 13.13 10.61 12.6 10.61 11.94L10.61 4.39L39.3 4.39L39.3 32.72L29.28 32.72C28.61 32.72 28.06 33.25 28.06 33.91C28.06 34.57 28.61 35.11 29.28 35.11L44.2 35.11C44.87 35.11 45.42 34.57 45.42 33.91C45.42 33.25 44.87 32.72 44.2 32.72L41.74 32.72L41.74 9.88L51.59 9.88L59.56 16.34L59.47 32.69L58.2 32.69C57.53 32.69 56.98 33.23 56.98 33.89C56.98 34.54 57.53 35.08 58.2 35.08L60.68 35.08C61.35 35.08 61.9 34.56 61.9 33.9L62 15.79C61.99 15.43 61.83 15.08 61.55 14.85L61.55 14.85ZM61.55 14.85" />
</svg>