<svg xmlns="http://www.w3.org/2000/svg" viewBox="0 0 48 53" width="48" height="53">
	<style>
		tspan { white-space:pre }
		.shp0 { fill: #66728d } 
	</style>
	<path id="Icon" class="shp0" d="M6.06 28.85C5.61 28.85 5.25 29.21 5.25 29.66L5.25 32.91C5.25 33.36 5.61 33.73 6.06 33.73C6.5 33.73 6.87 33.36 6.87 32.91L6.87 29.66C6.87 29.21 6.5 28.85 6.06 28.85ZM9.3 30.47C8.85 30.47 8.49 30.84 8.49 31.29L8.49 34.54C8.49 34.99 8.85 35.35 9.3 35.35C9.75 35.35 10.11 34.99 10.11 34.54L10.11 31.29C10.11 30.84 9.75 30.47 9.3 30.47ZM38.89 34.84C38.51 34.6 38.01 34.71 37.77 35.09C37.54 35.45 37.63 35.93 37.98 36.19C40.21 37.69 40.8 40.72 39.3 42.96C37.8 45.2 34.78 45.79 32.55 44.28C30.32 42.78 29.73 39.74 31.23 37.51C32.13 36.16 33.64 35.35 35.26 35.35C35.71 35.35 36.07 34.99 36.07 34.54C36.07 34.09 35.71 33.73 35.26 33.73C31.68 33.73 28.77 36.64 28.77 40.24C28.77 43.83 31.68 46.74 35.26 46.74C38.85 46.74 41.75 43.83 41.75 40.23C41.75 38.07 40.68 36.05 38.89 34.84ZM44.62 37.53C43.83 34.8 41.9 32.55 39.32 31.37L39.32 13.39C39.32 13.1 39.17 12.83 38.92 12.69L21.07 2.11C20.82 1.96 20.5 1.96 20.25 2.11L2.4 12.69C2.38 12.7 2.37 12.71 2.35 12.72C2.34 12.74 2.32 12.75 2.31 12.76C2.23 12.82 2.17 12.88 2.13 12.96C2.13 12.97 2.12 12.97 2.11 12.97L2.11 12.98C2.07 13.06 2.04 13.15 2.02 13.25C2.02 13.27 2.01 13.29 2.01 13.32C2.01 13.34 2 13.36 2 13.39L2 34.54C2 34.83 2.15 35.09 2.4 35.24L20.25 45.82C20.27 45.83 20.29 45.84 20.31 45.84C20.33 45.86 20.36 45.86 20.38 45.87C20.56 45.95 20.76 45.95 20.94 45.87C20.96 45.86 20.98 45.86 21.01 45.84C21.03 45.83 21.05 45.83 21.07 45.82L25.92 42.95C27.41 48.12 32.8 51.11 37.96 49.61C43.13 48.12 46.11 42.71 44.62 37.53ZM20.66 3.76L24.88 6.26L18.62 9.96C18.24 10.19 18.11 10.69 18.34 11.08C18.57 11.47 19.06 11.59 19.45 11.37L26.47 7.21L30.69 9.71L14.44 19.33L10.22 16.83L17.02 12.81C17.4 12.58 17.53 12.08 17.3 11.69C17.07 11.3 16.58 11.18 16.19 11.4L8.63 15.89L4.41 13.39L20.66 3.76ZM13.63 20.74L13.63 26.18L9.44 23.69L9.44 18.26L13.63 20.74ZM25.85 37.72C25.63 38.54 25.52 39.39 25.53 40.23C25.53 40.57 25.54 40.92 25.58 41.25L21.47 43.69L21.47 41.05C21.47 40.6 21.11 40.23 20.66 40.23C20.21 40.23 19.85 40.6 19.85 41.05L19.85 43.69L3.62 34.08L3.62 14.81L7.81 17.3L7.81 24.16C7.81 24.44 7.97 24.71 8.21 24.86L14.03 28.3C14.15 28.38 14.29 28.41 14.44 28.41C14.89 28.41 15.25 28.05 15.25 27.6L15.25 21.7L19.85 24.43L19.85 37.79C19.85 38.24 20.21 38.61 20.66 38.61C21.11 38.61 21.47 38.24 21.47 37.79L21.47 24.43L36.17 15.72C36.56 15.49 36.69 14.99 36.46 14.6C36.23 14.21 35.73 14.09 35.35 14.31L20.66 23.02L16.04 20.28L32.29 10.65L37.7 13.85L37.7 30.8C32.52 29.43 27.21 32.53 25.85 37.72ZM35.26 48.37C30.78 48.37 27.15 44.73 27.15 40.23C27.15 35.74 30.78 32.1 35.26 32.1C39.74 32.1 43.37 35.74 43.37 40.23C43.37 44.73 39.74 48.37 35.26 48.37ZM33.4 40.47C33.08 40.16 32.57 40.17 32.25 40.49C31.95 40.81 31.95 41.31 32.25 41.62L33.47 42.84C33.79 43.16 34.3 43.16 34.62 42.84L38.27 39.18C38.58 38.86 38.57 38.34 38.25 38.03C37.94 37.73 37.44 37.73 37.12 38.03L34.05 41.12L33.4 40.47Z" />
</svg>