<svg xmlns="http://www.w3.org/2000/svg" width="14" height="9" viewBox="0 0 14 9">
  <defs>
    <style>
      .cls-1 {
        fill: #fca901;
        fill-rule: evenodd;
      }
    </style>
  </defs>
  <path id="Arrow" class="cls-1" d="M11.115,5.128H9.127q-3.648,0-7.3,0a0.834,0.834,0,0,1-.777-0.391A0.877,0.877,0,0,1,1,3.85a0.784,0.784,0,0,1,.754-0.481h9.09c0.064,0,.128-0.007.275-0.016-0.5-.534-0.951-1.016-1.4-1.493A0.988,0.988,0,0,1,9.4,1.026,0.831,0.831,0,0,1,9.929.3a0.77,0.77,0,0,1,.9.256L13.341,3.3c0.1,0.1.193,0.205,0.286,0.312A0.917,0.917,0,0,1,13.621,4.9q-1.4,1.542-2.824,3.067a0.759,0.759,0,0,1-1.165.026A0.925,0.925,0,0,1,9.664,6.7C10.123,6.2,10.59,5.7,11.115,5.128Z"/>
</svg>
