<svg xmlns="http://www.w3.org/2000/svg" viewBox="0 0 50 50" width="50" height="50">
	<style>
		tspan { white-space:pre }
		.shp0 { fill: #66728d } 
	</style>
	<path id="Shape 2" class="shp0" d="M36.27 23.5C29.25 23.5 23.54 29.22 23.54 36.25C23.54 43.28 29.25 49 36.27 49C43.29 49 49 43.28 49 36.25C49 29.22 43.29 23.5 36.27 23.5ZM36.27 47.04C30.33 47.04 25.5 42.2 25.5 36.25C25.5 30.3 30.33 25.46 36.27 25.46C42.21 25.46 47.04 30.3 47.04 36.25C47.04 42.2 42.21 47.04 36.27 47.04ZM41.45 35.56L37.25 39.76L37.25 30.36C37.25 29.82 36.81 29.38 36.27 29.38C35.73 29.38 35.29 29.82 35.29 30.36L35.29 39.77L31.09 35.56C30.71 35.17 30.08 35.17 29.7 35.56C29.32 35.94 29.32 36.56 29.7 36.94L35.58 42.83C35.77 43.02 36.02 43.11 36.27 43.11C36.52 43.11 36.77 43.02 36.96 42.83L42.84 36.94C43.22 36.56 43.22 35.94 42.84 35.56C42.45 35.17 41.83 35.17 41.45 35.56ZM39.21 11.17L39.21 18.6C39.21 19.14 39.65 19.58 40.19 19.58C40.73 19.58 41.17 19.14 41.17 18.6L41.17 9.77C41.17 9.72 41.16 9.68 41.16 9.63C41.15 9.62 41.15 9.61 41.15 9.6C41.14 9.56 41.13 9.51 41.12 9.47C41.12 9.47 41.12 9.47 41.12 9.47C41.11 9.43 41.09 9.39 41.07 9.35C41.07 9.34 41.06 9.33 41.06 9.33C41.04 9.29 41.02 9.25 40.99 9.21C40.99 9.21 40.99 9.2 40.98 9.2C40.96 9.17 40.93 9.13 40.9 9.1C40.9 9.1 40.9 9.09 40.89 9.09C40.86 9.06 40.83 9.03 40.79 9C40.79 9 40.78 8.99 40.78 8.99C40.74 8.96 40.71 8.94 40.67 8.91C40.66 8.91 40.66 8.91 40.66 8.91C40.62 8.89 40.58 8.87 40.54 8.85C40.53 8.85 40.53 8.85 40.53 8.85L21.92 1.98C21.7 1.9 21.46 1.9 21.24 1.98L2.64 8.85C2.64 8.85 2.63 8.85 2.63 8.85C2.59 8.87 2.54 8.89 2.5 8.91C2.5 8.91 2.5 8.91 2.5 8.91C2.46 8.94 2.42 8.96 2.39 8.99C2.38 8.99 2.38 9 2.37 9C2.34 9.03 2.3 9.06 2.27 9.09C2.27 9.09 2.27 9.1 2.26 9.1C2.23 9.13 2.21 9.17 2.18 9.2C2.18 9.2 2.18 9.21 2.17 9.21C2.15 9.25 2.13 9.29 2.11 9.33C2.1 9.33 2.1 9.34 2.1 9.35C2.08 9.39 2.06 9.43 2.05 9.47C2.05 9.47 2.05 9.47 2.05 9.47C2.03 9.51 2.02 9.56 2.01 9.6C2.01 9.61 2.01 9.62 2.01 9.63C2 9.68 2 9.72 2 9.77L2 33.31C2 33.72 2.26 34.08 2.64 34.23L18.54 40.09C18.65 40.13 18.77 40.15 18.88 40.15C19.28 40.15 19.65 39.91 19.8 39.51C19.99 39 19.73 38.44 19.22 38.25L3.96 32.62L3.96 11.17L20.6 17.32L20.6 26.5C20.6 27.04 21.04 27.48 21.58 27.48C22.12 27.48 22.56 27.04 22.56 26.5L22.56 17.32L39.21 11.17ZM21.58 3.95L37.36 9.77L21.58 15.59L5.81 9.77L21.58 3.95Z" />
</svg>