<svg xmlns="http://www.w3.org/2000/svg" width="16" height="16" viewBox="0 0 16 16">
  <defs>
    <style>
      .cls-1 {
        fill: #fff;
        fill-rule: evenodd;
      }
    </style>
  </defs>
  <path id="Icon" class="cls-1" d="M10.85,4.147c-1.487.812-2.939,1.6-4.389,2.4-0.614.337-.572,0.336-0.511,1.01a12.022,12.022,0,0,1-.062,1.579l4.958,2.7c0.084-.1.16-0.189,0.231-0.279a2.75,2.75,0,1,1,1.751,4.4,2.716,2.716,0,0,1-2.319-2.746,0.585,0.585,0,0,0-.371-0.625Q7.853,11.37,5.59,10.114a0.392,0.392,0,0,0-.548.059,2.866,2.866,0,0,1-3.313.531A2.816,2.816,0,0,1,0,7.937,2.81,2.81,0,0,1,1.735,5.282a2.84,2.84,0,0,1,3.229.472,0.528,0.528,0,0,0,.728.071Q7.97,4.558,10.269,3.331a0.434,0.434,0,0,0,.231-0.49,2.749,2.749,0,1,1,.615,1.638Z"/>
</svg>
