<?xml version="1.0" encoding="UTF-8" standalone="no"?>
<svg
   xmlns:dc="http://purl.org/dc/elements/1.1/"
   xmlns:cc="http://creativecommons.org/ns#"
   xmlns:rdf="http://www.w3.org/1999/02/22-rdf-syntax-ns#"
   xmlns:svg="http://www.w3.org/2000/svg"
   xmlns="http://www.w3.org/2000/svg"
   viewBox="0 0 344 344"
   height="344"
   width="344"
   xml:space="preserve"
   id="svg2"
   version="1.1"><metadata
     id="metadata8"><rdf:RDF><cc:Work
         rdf:about=""><dc:format>image/svg+xml</dc:format><dc:type
           rdf:resource="http://purl.org/dc/dcmitype/StillImage" /></cc:Work></rdf:RDF></metadata><defs
     id="defs6" /><g
     transform="matrix(1.3333333,0,0,-1.3333333,0,344)"
     id="g10"><g
       transform="scale(0.1)"
       id="g12"><path
         id="path14"
         style="fill:#dee3e3;fill-opacity:1;fill-rule:evenodd;stroke:none"
         d="M 999.84,878.199 C 859.41,874.301 743.711,861.91 652.809,841.02 561.949,819.73 514.961,793.828 511.91,763.398 c 3.91,-32.617 57.621,-59.769 161.141,-81.519 103.469,-21.289 233.277,-32.43 389.409,-33.289 103.91,0 197.62,5.469 281.09,16.332 83.52,10.43 149.61,24.34 198.36,41.719 -3.08,-0.391 -5.93,-1.051 -8.51,-1.95 -103.05,-23.48 -201.56,-19.339 -295.47,12.418 -93.91,32.192 -173.32,85.903 -238.09,161.09" /><path
         id="path16"
         style="fill:#949ca1;fill-opacity:1;fill-rule:evenodd;stroke:none"
         d="m 905.27,1829.22 c 73.48,-33.01 153.48,-78.28 240,-135.67 26.1,14.81 53.71,27.39 82.85,37.82 -114.8,44.41 -222.42,76.99 -322.85,97.85" /><path
         id="path18"
         style="fill:#949ca1;fill-opacity:1;fill-rule:evenodd;stroke:none"
         d="m 1933.87,1328.95 c 6.99,-34.81 10.47,-69.34 10.47,-103.75 88.71,-76.96 157.85,-153.91 207.42,-230.899 49.53,-76.531 49.14,-138.52 -1.33,-185.903 2.62,-0.386 5,11.993 7.19,37.223 1.76,25.629 -11.49,66.758 -39.77,123.25 -27.85,56.519 -86.13,131.329 -174.8,224.369 -5.24,-79.53 -26.37,-153.47 -63.28,-221.76 67.81,-114.8 86.09,-197.609 54.76,-248.511 -2.15,-3.91 -4.8,-7.149 -7.81,-9.809 165.7,-12.57 271.56,20.238 317.66,98.52 29.53,61.761 16.09,138.281 -40.43,229.61 -56.57,91.33 -146.57,187.19 -270.08,287.66" /><path
         id="path20"
         style="fill:#ffffff;fill-opacity:1;fill-rule:evenodd;stroke:none"
         d="m 1943.05,1193.24 c 88.24,-93.04 146.52,-167.85 174.8,-224.369 28.28,-56.492 41.33,-97.391 39.1,-122.582 -2.18,-25.699 -4.29,-38.277 -6.52,-37.891 50.47,47.383 50.86,109.372 1.33,185.903 -49.57,76.989 -118.91,153.939 -208.09,230.899 0.43,-10.86 0.24,-21.49 -0.62,-31.96" /><path
         id="path22"
         style="fill:#ffffff;fill-opacity:1;fill-rule:evenodd;stroke:none"
         d="m 1832.77,1552.66 c 1.33,-2.19 3.05,-4.34 5.24,-6.53 -1.72,2.19 -3.44,4.34 -5.24,6.53" /><path
         id="path24"
         style="fill:#ffffff;fill-opacity:1;fill-rule:evenodd;stroke:none"
         d="m 1581.02,925.82 c -10.9,16.52 -25.86,26.559 -45.04,30 -18.71,3.09 -35.86,9.141 -51.53,18.239 -15.15,10.941 -29.76,21.992 -43.67,33.281 -6.52,3.95 -11.29,9.57 -14.37,17 0.47,3.43 1.09,7.57 1.95,12.38 -4.34,4.37 -8.01,9.76 -11.06,16.29 -0.46,10.47 2.39,19.57 8.44,27.42 6.14,7.81 8.09,17.19 5.86,28.01 -4.3,8.28 -12.58,15.27 -24.76,20.9 -12.58,5.66 -16.76,1.52 -12.39,-12.39 -14.33,-5.23 -30,-2.18 -46.95,9.14 -17.38,11.72 -33.28,18.44 -47.62,20.24 -15.62,-1.33 -30.86,-2.85 -45.66,-4.61 -20.9,-0.86 -41.72,-0.67 -62.62,0.66 -30.9,6.96 -55,22.66 -72.42,46.96 -17.38,24.8 -38.67,44.76 -63.91,60.04 6.1,-13.52 11.72,-27 17,-40.47 13.04,-2.62 21.05,-10.39 24.1,-23.44 -15.67,8.63 -27.19,21.01 -34.57,37.15 -12.15,14.76 -24.81,29.8 -37.85,45 -21.72,29.61 -27.579,61.76 -17.58,96.56 4.8,17.38 6.52,34.34 5.19,50.86 -3.9,4.37 -7.58,11.48 -11.05,21.52 1.29,7.82 3.24,15.67 5.86,23.48 2.15,20.86 -5,35 -21.569,42.38 -7.77,-0.39 -16.91,-4.72 -27.34,-13.04 -5.66,-8.25 -13.051,-14.34 -22.191,-18.25 -0.86,3.48 0.199,8.25 3.281,14.38 -26.992,-48.71 -45.93,-100.71 -56.789,-155.94 73.078,-79.53 156.358,-159.34 249.798,-239.37 139.18,-117.391 270.32,-210.712 393.36,-279.809 -115.27,39.531 -234.14,90.859 -356.8,153.91 -104.8,54.839 -201.089,112.219 -288.94,172.219 2.148,-11.75 4.531,-23.94 7.191,-36.52 21.68,-85.27 59.57,-159.141 113.469,-221.801 65.24,-75.187 144.57,-128.898 238.09,-161.09 93.91,-31.757 192.42,-35.898 295.47,-12.418 3.05,0.899 5.86,1.758 8.51,2.61 35.2,8.719 68.48,20.898 99.77,36.527 -26.95,8.281 -41.52,34.371 -43.71,78.281 -2.15,43.942 -7.81,78.481 -16.95,103.711" /><path
         id="path26"
         style="fill:#ffffff;fill-opacity:1;fill-rule:evenodd;stroke:none"
         d="m 1434.26,1259.8 c -5.24,-7.38 -11.76,-11.99 -19.57,-13.71 -0.43,7.39 2.81,14.11 9.8,20.24 6.92,6.05 11.25,7.38 13.05,3.9 0.39,-3.04 -0.66,-6.52 -3.28,-10.43 m -55.43,-13.04 c -22.23,-3.05 -45.9,-4.57 -71.13,-4.57 1.75,11.76 13.28,17.81 34.6,18.28 20.82,0 36.25,-0.67 46.29,-1.99 1.76,-7.39 -1.52,-11.33 -9.76,-11.72 m -27.42,384.18 c -12.58,-0.86 -24.14,3.28 -34.53,12.38 -10.47,8.71 -20.71,15.23 -30.71,19.57 -25.19,5.66 -51.09,5.23 -77.62,-1.29 -3.04,13.95 4.81,26.52 23.52,37.81 18.24,11.33 33.2,15.86 45,13.71 l -4.61,8.48 c 9.14,-11.72 21.99,-18.05 38.48,-18.9 16.13,-0.86 28.28,-6.06 36.56,-15.67 4.77,-11.29 8.48,-22.81 11.09,-34.57 10,-12.62 7.58,-19.8 -7.18,-21.52 m -80.86,-28.67 c -12.19,-3.48 -26.1,-5.28 -41.76,-5.28 -2.19,13.05 -9.14,19.85 -20.9,20.24 -11.72,0.47 -18.48,6.99 -20.19,19.57 l 22.14,-1.96 c 15.24,-11.75 33.95,-14.33 56.1,-7.81 -3.05,-10.47 -1.53,-18.71 4.61,-24.76 m 134.37,-53.52 c 0.39,-3.05 0.2,-6.05 -0.66,-9.14 -9.57,-3.05 -18.91,-6.29 -28.09,-9.77 -6.52,8.25 -6.91,16.1 -1.29,23.48 l 5.24,-1.33 c 7.81,-2.15 16.09,-3.24 24.8,-3.24 m 538.75,-323.55 c 0,34.41 -3.28,68.94 -9.8,103.75 -1.72,7.81 -3.48,15.66 -5.2,23.43 -8.71,36.57 -20.9,71.17 -36.52,103.75 -0.86,0 -1.53,-0.23 -1.95,-0.66 5.19,-18.28 2.14,-33.48 -9.11,-45.63 -13.94,0 -28.28,4.96 -43.08,14.96 -27.81,17.43 -50.43,40.28 -67.81,68.48 -10.9,12.19 -18.95,26.33 -24.15,42.42 -6.99,13.91 -15.46,26.1 -25.43,36.53 -6.99,9.57 -15.89,23.28 -26.75,41.09 -10.86,17.81 -12.85,29.61 -5.86,35.23 -2.19,9.54 -4.42,19.15 -6.53,28.72 7.78,-0.86 13.91,-4.38 18.25,-10.47 5.66,-1.29 10.89,-1.92 15.62,-1.92 -24.3,17.39 -50,32.62 -76.95,45.67 -3.91,-0.47 -7.38,0 -10.43,1.25 3.05,-15.16 10.9,-25.63 23.48,-31.29 12.61,-5.63 21.99,-15.24 28.04,-28.67 3.91,-16.1 -0.86,-21.57 -14.33,-16.33 -13.91,5.23 -25,10.19 -33.28,15 -7.86,1.72 -14.77,3.71 -20.9,5.86 -2.11,8.71 -1.92,14.76 0.66,18.28 -5.62,10.86 -14.57,15.86 -26.72,15 -8.28,10 -18.9,14.1 -31.95,12.38 -10.86,-3.94 -22.38,-6.95 -34.57,-9.14 -9.1,6.99 -18.05,13.28 -26.76,18.91 14.81,0 30.24,1.75 46.33,5.27 -7.85,11.25 -19.14,18.91 -33.95,22.81 -13.43,-6.52 -24.76,-6.33 -33.86,0.63 -13.05,-3.01 -26.1,-4.53 -39.14,-4.53 -0.86,0.86 -5.67,3.67 -14.38,8.43 -8.71,5.28 -15.43,8.52 -20.23,9.81 -12.19,-0.43 -23.05,1.72 -32.62,6.52 -27.34,-2.15 -54.77,-6.52 -82.19,-13.04 -18.24,-4.81 -36.09,-10.2 -53.48,-16.33 -28.67,-9.96 -56.28,-22.35 -82.85,-37.15 -83.04,-47.42 -148.711,-111.13 -196.95,-191.13 8.668,12.18 15.86,21.09 21.52,26.75 12.148,10.43 24.34,20.63 36.53,30.67 5.19,11.25 12.58,20 22.15,26.09 5.66,-2.65 12.85,-5.66 21.52,-9.18 12.62,0.86 24.61,2.85 35.86,5.94 20.9,-4.41 38.28,-3.52 52.19,2.58 -34.34,11.33 -32.82,19.1 4.61,23.51 17.34,0 32.14,-5.27 44.33,-15.7 -7.42,-7.81 -15.66,-20.43 -24.76,-37.81 -8.72,-17.39 -6.76,-29.38 5.85,-35.9 13.48,1.76 28.48,2.81 45,3.28 11.29,-10.47 23.29,-17.66 35.86,-21.52 -4.72,22.18 -9.8,43.28 -15,63.24 2.19,11.8 7.19,16.33 15,13.71 7.86,-3.05 16.1,-6.33 24.81,-9.77 2.15,19.11 12.19,24.34 30.04,15.63 7.38,-0.86 17.77,-1.72 31.29,-2.58 13.04,-0.9 22.34,-3.48 28,-7.85 6.14,-8.67 2.86,-19.77 -9.76,-33.24 -12.62,-13.52 -22.38,-24.34 -29.38,-32.62 10.47,0.86 19.57,0 27.43,-2.66 6.99,0.47 14.76,2.66 23.47,6.53 -3.04,-15.63 -13,-23.21 -30,-22.81 -7.38,-19.11 -14.37,-37.35 -20.9,-54.77 -6.91,-15.2 -9.53,-31.52 -7.77,-48.95 -6.99,-18.71 -13.05,-37.38 -18.32,-56.09 5.66,-16.52 12.85,-33.67 21.56,-51.52 -3.47,-1.72 -6.99,-2.62 -10.43,-2.62 -8.28,13.95 -19.76,21.33 -34.57,22.19 -6.52,1.72 -14.8,2.38 -24.8,1.99 -9.57,-0.47 -14.57,-5.66 -15,-15.7 -11.29,-4.73 -20.24,-6.72 -26.76,-5.86 -6.05,0.47 -11.72,-6.53 -16.95,-20.86 -6.92,-17.81 -6.33,-36.33 1.99,-55.43 11.72,-18.28 28.01,-26.33 48.91,-24.14 6.09,4.33 10.66,11.72 13.67,22.15 3.51,10 7.65,16.52 12.42,19.57 9.53,2.61 14.8,-1.92 15.66,-13.72 1.25,-11.71 4.11,-20.82 8.44,-27.34 8.28,-6.13 16.13,-7.19 23.52,-3.28 7.38,4.34 15.23,5.2 23.47,2.62 7.39,-15.24 17.58,-29.14 30.63,-41.76 10.9,0 18.51,3.48 22.85,10.47 10.04,1.25 17.42,1.72 22.19,1.25 3.86,0.47 8.01,0.9 12.38,1.33 -6.95,26.52 -0.19,41.09 20.23,43.67 20,3.08 38.48,5.66 55.47,7.85 13.44,10.86 28.87,17.19 46.25,18.91 17.43,-6.06 34.81,-11.06 52.19,-14.96 18.28,6.91 37.19,8.9 56.76,5.85 9.61,-5.19 16.99,-9.61 22.19,-13.04 4.76,-3.95 13.71,-4.81 26.75,-2.62 20.43,5.66 39.34,9.34 56.76,11.05 17.78,1.8 29.96,-8.67 36.49,-31.28 12.65,-54.38 5.89,-106.1 -20.2,-155.2 -10.43,-24.37 -20,-48.941 -28.71,-73.749 -7.81,-26.09 -22.85,-46.95 -45,-62.621 10.43,-9.532 8.52,-19.801 -5.86,-30.622 -14.37,-11.328 -25.04,-21.128 -31.95,-29.378 -13.91,-25.231 -16.53,-48.239 -7.85,-69.141 95.7,52.191 168.71,124.812 219.18,217.851 36.52,68.68 57.61,142.62 63.28,221.76 0.39,10.47 0.62,21.1 0.62,31.96" /><path
         id="path28"
         style="fill:#005494;fill-opacity:1;fill-rule:evenodd;stroke:none"
         d="m 1669.1,822.77 c 6.92,8.25 17.58,18.05 31.95,29.378 13.91,10.821 15.83,21.09 5.86,30.622 22.15,15.671 37.19,36.531 45,62.621 8.25,24.808 17.82,49.57 28.68,74.339 26.09,48.71 32.85,100.23 20.23,154.61 -6.52,22.61 -18.71,33.08 -36.52,31.28 -17.82,-1.71 -36.76,-5.19 -56.72,-10.39 -13.05,-2.18 -21.99,-1.52 -26.76,1.96 -5.2,3.43 -12.62,7.85 -22.19,13.04 -20,3.05 -38.9,1.33 -56.75,-5.19 -17.39,3.44 -34.77,8.24 -52.19,14.3 -17.81,-1.25 -33.28,-7.58 -46.33,-18.91 -16.91,-2.19 -35.63,-4.77 -56.06,-7.85 -20,-2.58 -26.75,-17.15 -20.23,-43.67 -4.37,-0.43 -8.24,-0.86 -11.76,-1.33 -4.72,0.47 -12.19,0 -22.15,-1.25 -4.33,-6.99 -12.18,-10.47 -23.51,-10.47 -12.58,12.62 -22.81,26.52 -30.63,41.76 -7.85,2.58 -15.62,1.72 -23.47,-2.62 -7.39,-3.91 -15,-2.85 -22.85,3.28 -4.34,6.52 -7.19,15.63 -8.44,27.34 -1.33,11.8 -6.8,16.33 -16.33,13.72 -4.38,-3.05 -8.28,-9.57 -11.76,-19.57 -3.47,-10.43 -8.24,-17.82 -14.33,-22.15 -20.9,-2.19 -37.19,5.86 -48.91,24.14 -7.85,19.57 -8.32,38.01 -1.33,55.43 4.81,14.33 10.43,21.33 16.95,20.86 6.1,-0.86 15,1.13 26.76,5.86 0,10.04 5,15.23 15,15.7 10,0.86 18.24,0.39 24.77,-1.33 14.37,-1.33 25.66,-8.9 33.94,-22.85 3.91,0.47 7.58,1.33 11.1,2.62 -8.71,17.85 -16.1,35 -22.23,51.52 5.66,18.71 11.8,37.38 18.32,56.09 -1.33,17.43 1.52,33.75 8.44,48.95 6.13,17.42 13.05,35.66 20.9,54.77 16.95,-0.4 26.95,7.18 30,22.81 -8.71,-3.87 -16.57,-6.06 -23.48,-6.53 -7.85,2.66 -16.95,3.52 -27.42,2.66 6.99,8.28 16.76,19.1 29.37,32.62 12.62,13.47 15.63,24.57 9.1,33.24 -5.66,4.37 -14.96,6.95 -28,7.85 -13.05,0.86 -23.32,1.72 -30.71,2.58 -17.77,8.71 -28,3.48 -30.62,-15.63 -8.71,3.44 -16.95,6.72 -24.81,9.77 -7.81,2.62 -12.57,-1.91 -14.33,-13.71 5.19,-19.96 10,-41.06 14.33,-63.24 -12.18,3.86 -24.1,11.05 -35.86,21.52 -16.05,-0.47 -31.09,-1.52 -45,-3.28 -12.61,6.52 -14.33,18.51 -5.19,35.9 9.1,17.38 17.15,30 24.1,37.81 -11.72,10.43 -26.33,15.7 -43.67,15.7 -37.89,-4.41 -39.38,-12.18 -4.61,-23.51 -13.91,-6.1 -31.48,-6.99 -52.85,-2.58 -11.25,-3.09 -23.01,-5.08 -35.2,-5.94 -9.14,3.52 -16.32,6.53 -21.52,9.18 -9.96,-5.66 -17.42,-14.37 -22.15,-26.09 -12.651,-10.04 -25.042,-20.04 -37.19,-30 -5.66,-6.13 -12.61,-15.24 -20.891,-27.42 -3.871,-6.06 -7.148,-11.72 -9.808,-16.96 -3.012,-6.09 -4.34,-11.09 -3.871,-15 9.14,3.91 16.718,10 22.851,18.25 9.969,8.71 18.91,13.04 26.68,13.04 16.569,-7.38 23.719,-21.52 21.569,-42.38 -2.19,-7.42 -4.14,-15.2 -5.86,-23.48 3.47,-9.57 7.38,-16.76 11.72,-21.52 0.86,-16.52 -1.06,-33.48 -5.86,-50.86 -9.999,-34.38 -3.91,-66.56 18.24,-96.56 12.66,-14.81 25.04,-29.77 37.19,-45 7.38,-16.14 18.9,-28.24 34.57,-36.57 -2.62,13.05 -10.47,20.71 -23.52,22.86 -5.62,13.9 -11.25,27.42 -16.91,40.47 25.23,-15.28 46.29,-35.04 63.24,-59.38 17.42,-24.77 41.52,-40.43 72.42,-46.95 20.9,-1.76 41.72,-2 62.62,-0.67 14.8,1.29 30.04,2.82 45.66,4.53 14.34,-2.11 30.24,-8.9 47.62,-20.15 17.42,-11.8 33.05,-14.85 46.95,-9.18 -3.9,13.51 0.24,17.42 12.39,11.76 12.18,-5.63 20.46,-12.39 24.76,-20.24 2.66,-10.82 0.9,-20.19 -5.19,-28.01 -6.53,-7.85 -9.57,-16.95 -9.11,-27.42 3.48,-6.52 7.39,-12.19 11.72,-16.95 -1.29,-4.81 -2.14,-8.67 -2.61,-11.72 3.47,-7.42 8.28,-13.28 14.37,-17.66 13.91,-11.289 28.52,-22.34 43.67,-33.281 15.67,-9.098 33.09,-15.149 52.19,-18.239 19.18,-3.05 34.14,-12.808 45,-29.34 8.71,-25.23 14.18,-60.031 16.33,-104.371 2.19,-43.91 16.76,-70 43.71,-78.281 7.38,-0.859 16.09,0.231 26.09,3.281 -2.61,1.719 -4.8,3.911 -6.52,6.52 -8.71,20.902 -6.05,43.91 7.85,69.141" /><path
         id="path30"
         style="fill:#005494;fill-opacity:1;fill-rule:evenodd;stroke:none"
         d="m 1681.48,1676.6 c 2.11,-9.14 4.11,-18.51 5.86,-28.05 -6.52,-5.62 -4.33,-17.61 6.53,-35.85 10.86,-17.86 19.76,-31.33 26.75,-40.47 9.97,-10.86 18.44,-23.01 25.43,-36.53 5.2,-16.09 13.25,-30.23 24.15,-42.42 17.38,-28.67 40,-51.48 67.81,-68.48 14.8,-10.42 29.14,-15.62 43.08,-15.62 11.25,12.58 14.3,28.01 9.11,46.29 0.42,0.43 1.09,0.66 1.95,0.66 4.37,0.9 7.19,-1.52 8.51,-7.18 v 9.14 c 6.06,10.43 0.59,24.14 -16.32,41.05 -16.96,16.99 -32.43,32.62 -46.33,46.99 -2.19,2.19 -3.91,4.34 -5.24,6.53 -4.72,6.05 -6.05,11.13 -3.86,15 -20.43,23.08 -43.29,45.04 -68.52,65.89 -11.29,11.29 -23.28,21.1 -35.86,29.34 -3.51,1.33 -6.52,1.99 -9.18,1.99 -4.73,-0.47 -9.96,0.2 -15.62,1.92 -4.34,6.09 -10.47,9.33 -18.25,9.8" /><path
         id="path32"
         style="fill:#005494;fill-opacity:1;fill-rule:evenodd;stroke:none"
         d="m 1347.5,1687.03 c -8.28,9.61 -20.43,14.81 -36.56,15.67 -16.49,0.46 -29.34,6.71 -38.48,18.9 l 3.95,-8.48 c -11.33,2.15 -26.29,-2.38 -45,-13.71 -18.29,-11.29 -25.9,-23.86 -22.86,-37.81 26.53,6.52 52.43,6.95 77.62,1.29 10,-4.34 20.24,-11.05 30.71,-20.23 10.39,-8.68 21.95,-12.58 34.53,-11.72 14.76,1.72 17.18,8.9 7.18,21.52 -2.61,11.76 -6.32,23.28 -11.09,34.57" /><path
         id="path34"
         style="fill:#005494;fill-opacity:1;fill-rule:evenodd;stroke:none"
         d="m 1396.41,1754.22 c 4.8,-1.29 11.52,-4.53 20.23,-9.81 8.71,-5.19 13.52,-8.04 14.38,-8.43 12.57,0 25.62,1.52 39.14,4.53 9.1,-7.39 20.43,-7.81 33.86,-1.29 14.81,-3.44 25.9,-10.9 33.28,-22.15 -15.62,-3.95 -30.85,-5.66 -45.66,-5.27 8.71,-5.63 17.38,-11.92 26.09,-18.91 12.58,1.76 24.38,4.61 35.24,8.48 13.05,1.79 23.67,-2.15 31.95,-11.72 11.76,0.47 20.67,-4.61 26.72,-15 -2.58,-3.52 -2.77,-9.77 -0.66,-18.95 5.66,-2.15 12.65,-3.86 20.9,-5.19 8.28,-5.2 19.14,-10.24 32.61,-15 13.91,-5.24 18.91,0.23 15,16.33 -6.05,13.04 -15.43,22.38 -28.04,28 -13.05,5.67 -20.9,16.33 -23.48,31.96 3.05,-1.25 6.52,-1.92 10.43,-1.92 3.08,0.39 5.86,0.39 8.48,0 -16.92,13.44 -37.15,22.15 -60.67,26.1 -22.15,9.96 -45.43,17.81 -69.8,23.47 -40.86,9.53 -82.15,14.77 -123.91,15.67 -4.77,0.39 -11.72,0.39 -20.86,0 -9.14,-0.47 -11.99,-5.28 -8.52,-14.38 10.04,-5.19 21.1,-7.38 33.29,-6.52" /><path
         id="path36"
         style="fill:#005494;fill-opacity:1;fill-rule:evenodd;stroke:none"
         d="m 1307.7,1242.19 c 25.66,0 49.57,1.52 71.75,4.57 8.28,0.39 11.57,4.33 9.77,11.72 -10,1.32 -25.63,1.99 -46.92,1.99 -21.32,-0.47 -32.85,-6.52 -34.6,-18.28" /><path
         id="path38"
         style="fill:#005494;fill-opacity:1;fill-rule:evenodd;stroke:none"
         d="m 1414.69,1246.09 c 8.28,1.72 15,6.33 20.19,13.71 2.66,3.48 3.71,6.92 3.24,10.43 -1.71,3.48 -6.05,2.15 -13.04,-3.9 -6.92,-6.13 -10.39,-12.85 -10.39,-20.24" /><path
         id="path40"
         style="fill:#005494;fill-opacity:1;fill-rule:evenodd;stroke:none"
         d="m 1266.6,1627.03 c -22.15,-6.52 -40.86,-3.94 -56.09,7.81 l -22.15,1.96 c 1.72,-12.58 8.44,-19.1 20.19,-19.57 11.72,-0.39 18.72,-7.19 20.86,-20.24 15.71,0 29.61,1.8 41.8,5.28 -6.52,6.05 -8.05,14.29 -4.61,24.76" /><path
         id="path42"
         style="fill:#005494;fill-opacity:1;fill-rule:evenodd;stroke:none"
         d="m 1376.17,1529.84 c 9.18,3.48 18.52,6.72 28.09,9.77 0.86,3.09 1.05,6.09 0.66,9.14 -8.71,0 -16.99,1.09 -24.8,3.24 l -5.24,1.33 c -5.62,-7.38 -5.23,-15.23 1.29,-23.48" /><path
         id="path44"
         style="fill:#11b3e8;fill-opacity:1;fill-rule:evenodd;stroke:none"
         d="M 489.059,1770.51 C 483.871,1713.12 509.102,1641.8 564.77,1556.6 620,1470.94 676.762,1394.18 735,1326.29 c 58.711,-67.34 90.469,-103.01 95.23,-106.95 -152.179,133.04 -251.32,240.27 -297.421,321.6 -46.129,80.9 -66.09,139.57 -60.039,176.13 6.14,36.48 11.57,54.3 16.289,53.44 M 1524.92,810.391 c -123.51,69.097 -254.57,162.418 -393.36,279.809 -93.44,80.03 -176.951,159.84 -250.47,239.37 -108.281,118.28 -187.141,224.84 -236.75,319.61 -49.57,94.84 -60.43,164.41 -32.578,208.75 0.386,0 0.859,0.23 1.25,0.62 -94.774,-9.57 -157.422,-41.91 -187.813,-97.14 -34.379,-73.95 -9.609,-167.23 74.332,-279.85 83.52,-112.61 210.039,-227.42 379.649,-344.41 87.851,-60.43 184.14,-118.01 288.94,-172.849 122.66,-63.051 241.53,-114.379 356.8,-153.91" /><path
         id="path46"
         style="fill:#ffffff;fill-opacity:1;fill-rule:evenodd;stroke:none"
         d="m 489.059,1771.17 c -4.289,0.47 -9.758,-17.38 -16.289,-53.51 -6.051,-36.49 13.91,-95.43 60.039,-176.72 46.101,-80.9 145.242,-188.09 297.421,-321.6 -4.761,3.94 -36.32,39.8 -94.57,107.61 -58.711,67.43 -115.66,143.99 -170.89,229.65 -55.239,85.67 -80.43,157.19 -75.711,214.57" /><path
         id="path48"
         style="fill:#005596;fill-opacity:1;fill-rule:nonzero;stroke:none"
         d="m 282.539,1803.83 152.66,102.65 28.281,-42.03 L 261.762,1728.83 0.0390625,2117.89 49.1016,2150.86 Z" /><path
         id="path50"
         style="fill:#005596;fill-opacity:1;fill-rule:nonzero;stroke:none"
         d="m 432.34,2063.32 c -20.07,46.45 -24.719,88.05 -13.899,124.84 10.86,36.88 34.758,63.32 71.719,79.38 37.07,16.01 72.649,15.7 106.719,-0.94 34.062,-16.56 61.172,-47.46 81.402,-92.65 l 14.528,-33.75 c 20,-46.25 24.57,-87.78 13.75,-124.54 -10.739,-36.79 -34.84,-63.28 -72.34,-79.53 -36.989,-15.93 -72.34,-15.7 -106.098,0.78 -33.672,16.57 -60.5,47.07 -80.621,91.57 z m 65.469,-7.5 c 14.14,-32.93 31.761,-56.02 52.812,-69.22 21.141,-13.24 42.578,-15.15 64.379,-5.78 46.129,20 55.469,63.63 27.969,130.94 l -15.629,35.94 c -14.059,32.69 -31.719,55.7 -52.961,69.06 -21.258,13.44 -42.82,15.39 -64.688,5.94 -21.371,-9.3 -34.382,-26.22 -39.07,-50.79 -4.68,-24.61 0,-53.12 14.07,-85.62 z" /><path
         id="path52"
         style="fill:#005596;fill-opacity:1;fill-rule:nonzero;stroke:none"
         d="m 773.629,2200.23 c -11.867,52.89 -11.168,95.08 2.031,126.57 13.211,31.44 38.36,51.29 75.469,59.53 34.57,7.81 64.141,-1.06 88.75,-26.56 l -5.617,38.59 50.308,11.41 76.88,-343.13 c 9.37,-42.11 5.78,-76.8 -10.79,-104.22 -16.48,-27.38 -43.98,-45.39 -82.5,-54.06 -16.789,-3.75 -36.519,-3.79 -59.211,-0.16 -22.738,3.56 -40.711,10.24 -53.91,20 l 13.91,43.44 c 28.199,-17.38 56.25,-23.01 84.063,-16.87 46.25,10.43 64.368,41.05 54.368,91.87 l -9.841,44.38 c -12.109,-30.75 -34.687,-49.81 -67.809,-57.19 -35.121,-7.93 -65.55,-0.9 -91.25,21.09 -25.628,22.07 -44.46,57.97 -56.41,107.66 z m 62.82,-19.37 c 8.512,-38.13 20.391,-64.92 35.621,-80.31 15.2,-15.43 35.629,-20.28 61.25,-14.53 27.578,6.13 45.16,24.92 52.66,56.4 l -38.128,170.16 c -20.622,24.57 -44.301,33.83 -70.942,27.81 -25.621,-5.74 -42.109,-18.87 -49.371,-39.37 -7.309,-20.43 -6.879,-49.22 1.25,-86.41 z" /><path
         id="path54"
         style="fill:#005596;fill-opacity:1;fill-rule:nonzero;stroke:none"
         d="m 1206.48,2081.88 -56.87,-4.85 -29.06,347.19 56.87,4.84 z m -43.59,492.03 71.88,6.09 -78.13,-101.56 -47.81,-4.06 z" /><path
         id="path56"
         style="fill:#005596;fill-opacity:1;fill-rule:nonzero;stroke:none"
         d="m 1472.62,2170.35 c 0.5,12.19 -3.67,22.85 -12.5,32.03 -8.75,9.26 -26.1,20.39 -52.03,33.44 -30.12,13.95 -51.21,25.7 -63.29,35.31 -12.1,9.57 -21.01,20.24 -26.71,32.03 -5.75,11.76 -8.29,25.55 -7.66,41.41 1.25,28.32 12.58,51.41 34.06,69.22 21.56,17.89 48.44,26.13 80.63,24.69 33.94,-1.57 60.78,-12.66 80.47,-33.28 19.68,-20.63 28.79,-46.41 27.34,-77.35 l -56.41,2.5 c 0.71,15.7 -3.98,29.3 -14.06,40.78 -10,11.57 -23.2,17.7 -39.53,18.44 -16.8,0.7 -30.12,-3.09 -40,-11.41 -9.92,-8.24 -15.16,-19.64 -15.78,-34.21 -0.55,-11.57 2.54,-21.06 9.22,-28.44 6.64,-7.31 23.01,-17.35 49.06,-30.16 41.56,-18.36 69.57,-35.74 84.06,-52.19 14.57,-16.48 21.29,-36.83 20.16,-61.09 -1.25,-30.23 -12.74,-53.91 -34.38,-71.09 -21.56,-17.19 -49.84,-25 -84.84,-23.44 -36.25,1.56 -65.16,13.2 -86.72,35 -21.56,21.87 -31.68,48.75 -30.31,80.62 l 57.19,-2.5 c -0.24,-19.29 5,-34.64 15.62,-46.09 10.7,-11.48 26.17,-17.62 46.41,-18.44 18.94,-0.93 33.51,2.58 43.75,10.63 10.19,8.12 15.62,19.29 16.25,33.59 z" /><path
         id="path58"
         style="fill:#005596;fill-opacity:1;fill-rule:nonzero;stroke:none"
         d="m 1751.37,2477.7 -15.47,-82.97 51.72,-9.53 -8.44,-45.32 -51.72,9.53 -39.69,-212.34 c -2.5,-13.55 -2.18,-24.22 0.94,-32.03 3.2,-7.81 10.2,-12.74 20.94,-14.69 7.38,-1.37 15.15,-1.48 23.28,-0.31 l -9.53,-47.34 c -13.56,-1.76 -26.95,-1.41 -40.16,1.09 -22.19,4.06 -37.65,15.08 -46.4,32.97 -8.68,18.01 -10.28,41.48 -4.85,70.47 l 39.69,212.65 -52.19,9.69 8.44,45.31 52.19,-9.68 15.47,82.96 z" /><path
         id="path60"
         style="fill:#005596;fill-opacity:1;fill-rule:nonzero;stroke:none"
         d="m 1847.81,2007.97 -54.69,15.94 97.5,334.53 54.69,-15.94 z M 1975.47,2430 c -2.74,-9.3 -7.58,-16.33 -14.53,-21.09 -6.99,-4.69 -15.74,-5.47 -26.25,-2.35 -10.31,3.01 -17.15,8.36 -20.47,16.1 -3.36,7.69 -3.67,16.17 -0.94,25.46 2.7,9.26 7.54,16.33 14.53,21.26 7.07,4.88 15.71,5.82 25.94,2.81 10.31,-3.05 17.11,-8.56 20.47,-16.57 3.44,-8.04 3.83,-16.56 1.25,-25.62 z" /><path
         id="path62"
         style="fill:#005596;fill-opacity:1;fill-rule:nonzero;stroke:none"
         d="m 2061.41,1972.3 c 17.26,-7.57 33.47,-8.32 48.59,-2.18 15.2,6.17 27.66,18.98 37.34,38.43 l 49.22,-21.71 c -14.68,-30.2 -36.72,-50.82 -66.09,-61.88 -29.38,-11.13 -58.91,-10.19 -88.59,2.81 -39.5,17.31 -64.18,42.93 -74.07,76.88 -9.8,33.94 -3.9,75.51 17.66,124.69 l 15.47,35.15 c 21.25,48.13 47.69,80.16 79.37,96.1 31.64,16.01 67.23,15.35 106.72,-2.04 32.58,-14.29 53.95,-35.93 64.06,-65 10.08,-29.06 7.86,-61.79 -6.71,-98.12 l -49.22,21.72 c 9.25,24.14 11.4,44.3 6.4,60.47 -5,16.25 -16.4,28.28 -34.22,36.09 -23.24,10.2 -43.82,10.16 -61.72,-0.16 -17.81,-10.23 -34.6,-32.65 -50.31,-67.34 l -17.97,-40.78 c -16.48,-37.42 -22.57,-66.33 -18.28,-86.72 4.38,-20.39 18.48,-35.86 42.35,-46.41 z" /><path
         id="path64"
         style="fill:#005596;fill-opacity:1;fill-rule:nonzero;stroke:none"
         d="m 2359.3,1752.85 c 1.25,8.24 6.25,20.16 15,35.78 -33.25,-13.32 -62.89,-11.25 -88.91,6.25 -26.25,17.5 -41.8,38.56 -46.56,63.13 -4.81,24.57 1.76,50.23 19.69,77.03 19.68,29.37 45.31,45.98 76.87,49.84 31.64,3.83 65,-5.74 100,-28.75 l 34.69,-23.12 20.62,30.78 c 11.57,17.26 15.94,32.11 13.13,44.53 -2.74,12.5 -11.88,23.98 -27.5,34.53 -14.3,9.57 -28.71,13.13 -43.28,10.63 -14.61,-2.5 -26.21,-10.28 -34.85,-23.28 l -47.34,31.71 c 9.88,14.77 23.67,25.98 41.41,33.6 17.81,7.58 36.64,10.23 56.56,7.97 19.88,-2.31 38.94,-9.53 57.19,-21.72 29.68,-19.92 47.22,-42.42 52.65,-67.5 5.51,-25 -1.01,-51.68 -19.53,-80 l -97.97,-146.1 c -14.8,-22.26 -24.76,-43.63 -29.84,-64.06 l -2.81,-4.22 z m -37.82,80.16 c 11.64,-7.7 24.89,-11.92 39.69,-12.66 14.77,-0.7 27.81,2.19 39.06,8.75 l 46.25,68.91 -26.71,17.81 c -22.62,14.77 -43.72,21.64 -63.29,20.63 -19.49,-0.94 -35.11,-10.16 -46.87,-27.66 -10.94,-16.25 -15.63,-30.27 -14.06,-42.03 1.56,-11.88 10.19,-23.13 25.93,-33.75 z" /><path
         id="path66"
         style="fill:#005596;fill-opacity:1;fill-rule:nonzero;stroke:none"
         d="M 188.09,573.629 302.77,214.73 417.621,573.629 h 71.25 v -439.84 h -55.32 v 171.25 l 5.16,171.563 -115,-342.813 h -42.34 L 166.84,475.352 171.988,305.039 V 133.789 H 116.68 v 439.84 z M 745,133.789 c -3.238,7.07 -5.59,18.941 -7.031,35.621 -18.867,-27.808 -42.969,-41.711 -72.348,-41.711 -29.68,0 -52.891,8.281 -69.531,24.84 -16.559,16.641 -24.84,40.082 -24.84,70.313 0,33.199 11.25,59.57 33.75,79.058 22.578,19.57 53.52,29.57 92.809,30 h 39.382 v 34.692 c 0,19.57 -4.382,33.48 -13.132,41.718 -8.668,8.2 -21.829,12.34 -39.528,12.34 -16.051,0 -29.14,-4.801 -39.222,-14.371 -10.11,-9.488 -15.149,-21.559 -15.149,-36.25 h -53.441 c 0,16.641 4.922,32.582 14.84,47.813 9.89,15.199 23.171,27.109 39.851,35.777 16.75,8.641 35.391,12.973 55.93,12.973 33.441,0 58.832,-8.364 76.25,-25 17.39,-16.563 26.289,-40.743 26.719,-72.5 v -165 c 0.203,-25.122 3.64,-46.954 10.312,-65.473 v -4.84 z m -71.25,42.66 c 13.012,0 25.469,3.59 37.34,10.781 11.879,7.258 20.551,16.321 26.101,27.18 v 77.969 h -30.312 c -25.32,-0.43 -45.32,-6.168 -60,-17.18 -14.688,-10.937 -22.039,-26.25 -22.039,-45.937 0,-18.563 3.68,-31.992 11.101,-40.313 7.5,-8.359 20.079,-12.5 37.809,-12.5 z" /><path
         id="path68"
         style="fill:#005596;fill-opacity:1;fill-rule:nonzero;stroke:none"
         d="m 1109.61,281.449 c 0,-50.937 -9.18,-89.34 -27.5,-115.16 -18.36,-25.738 -44.96,-38.59 -79.84,-38.59 -34.61,0 -60.551,14.883 -77.821,44.68 l -2.808,-38.59 h -48.59 v 463.91 h 53.121 V 424.73 c 17.578,27.891 42.808,41.872 75.628,41.872 35.82,0 62.69,-12.731 80.62,-38.122 17.89,-25.32 26.96,-63.558 27.19,-114.691 z m -53.28,30.621 c 0,38.629 -5.39,66.129 -16.1,82.5 -10.74,16.45 -28.2,24.692 -52.339,24.692 -27.621,0 -48.2,-14.922 -61.719,-44.692 V 218.949 c 13.316,-29.379 34.098,-44.07 62.348,-44.07 24.14,0 41.44,8.441 51.87,25.32 10.51,16.949 15.82,43.281 15.94,78.903 z" /><path
         id="path70"
         style="fill:#005596;fill-opacity:1;fill-rule:nonzero;stroke:none"
         d="m 1346.68,133.789 c -3.24,7.07 -5.59,18.941 -7.03,35.621 -18.87,-27.808 -42.97,-41.711 -72.35,-41.711 -29.68,0 -52.89,8.281 -69.53,24.84 -16.56,16.641 -24.84,40.082 -24.84,70.313 0,33.199 11.25,59.57 33.75,79.058 22.58,19.57 53.52,29.57 92.81,30 h 39.38 v 34.692 c 0,19.57 -4.38,33.48 -13.13,41.718 -8.67,8.2 -21.83,12.34 -39.53,12.34 -16.05,0 -29.14,-4.801 -39.22,-14.371 -10.11,-9.488 -15.15,-21.559 -15.15,-36.25 h -53.44 c 0,16.641 4.92,32.582 14.84,47.813 9.88,15.199 23.17,27.109 39.85,35.777 16.75,8.641 35.39,12.973 55.93,12.973 33.44,0 58.83,-8.364 76.25,-25 17.39,-16.563 26.29,-40.743 26.72,-72.5 v -165 c 0.2,-25.122 3.63,-46.954 10.31,-65.473 v -4.84 z m -71.25,42.66 c 13.01,0 25.47,3.59 37.34,10.781 11.88,7.258 20.55,16.321 26.1,27.18 v 77.969 h -30.32 c -25.31,-0.43 -45.31,-6.168 -60,-17.18 -14.68,-10.937 -22.03,-26.25 -22.03,-45.937 0,-18.563 3.68,-31.992 11.1,-40.313 7.5,-8.359 20.08,-12.5 37.81,-12.5 z" /><path
         id="path72"
         style="fill:#005596;fill-opacity:1;fill-rule:nonzero;stroke:none"
         d="m 1710.66,281.449 c 0,-51.801 -9.33,-90.398 -27.96,-115.789 -18.68,-25.308 -44.97,-37.961 -78.91,-37.961 -32.93,0 -58.24,12.383 -75.94,37.18 V 8.16016 h -53.12 V 460.66 h 48.28 l 2.81,-36.25 c 17.89,28.129 43.59,42.192 77.03,42.192 35.82,0 62.58,-12.5 80.31,-37.5 17.7,-24.922 26.88,-62.262 27.5,-112.032 z m -53.12,30.621 c 0,36.559 -5.7,63.52 -17.03,80.942 -11.25,17.5 -29.38,26.25 -54.38,26.25 -25.54,0 -44.96,-12.813 -58.28,-38.442 v -170 c 13.13,-25 32.74,-37.5 58.91,-37.5 24.14,0 41.91,8.668 53.28,26.09 11.44,17.5 17.26,44.141 17.5,80 z" /><path
         id="path74"
         style="fill:#005596;fill-opacity:1;fill-rule:nonzero;stroke:none"
         d="m 1896.95,127.699 c -40.62,0 -71.83,12.102 -93.59,36.403 -21.8,24.257 -32.89,59.878 -33.28,106.878 v 39.532 c 0,48.75 10.62,86.91 31.87,114.527 21.25,27.691 50.94,41.563 89.07,41.563 38.2,0 66.75,-12.192 85.62,-36.563 18.95,-24.379 28.63,-62.309 29.06,-113.75 v -35.16 h -182.34 v -7.5 c 0,-35 6.56,-60.469 19.69,-76.399 13.2,-15.941 32.22,-23.91 57.03,-23.91 15.62,0 29.41,2.969 41.4,8.91 11.96,5.93 23.21,15.352 33.75,28.282 l 27.82,-33.75 c -23.25,-32.742 -58.6,-49.063 -106.1,-49.063 z m -5.93,292.961 c -22.19,0 -38.68,-7.609 -49.38,-22.808 -10.62,-15.122 -16.64,-38.711 -17.97,-70.782 h 128.6 v 7.34 c -1.37,30.942 -6.96,53.012 -16.72,66.25 -9.81,13.32 -24.65,20 -44.53,20 z" /><path
         id="path76"
         style="fill:#005596;fill-opacity:1;fill-rule:nonzero;stroke:none"
         d="m 2228.95,217.379 c 0,11.57 -4.34,21.453 -12.97,29.691 -8.68,8.2 -25.39,17.852 -50.16,28.91 -28.75,11.95 -49.06,22.18 -60.94,30.622 -11.79,8.437 -20.58,18.007 -26.4,28.75 -5.86,10.82 -8.75,23.668 -8.75,38.597 0,26.563 9.68,48.633 29.06,66.25 19.45,17.571 44.3,26.403 74.53,26.403 31.88,0 57.42,-9.301 76.72,-27.813 19.37,-18.437 29.06,-42.187 29.06,-71.25 h -53.12 c 0,14.691 -4.96,27.191 -14.85,37.5 -9.92,10.391 -22.5,15.621 -37.81,15.621 -15.62,0 -27.97,-4.058 -37.03,-12.18 -8.99,-8.128 -13.44,-19.07 -13.44,-32.82 0,-10.859 3.28,-19.609 9.85,-26.25 6.56,-6.68 22.34,-15.43 47.34,-26.25 39.69,-15.539 66.64,-30.699 80.94,-45.461 14.25,-14.808 21.4,-33.558 21.4,-56.25 0,-28.437 -9.8,-51.219 -29.37,-68.289 -19.49,-16.988 -45.63,-25.461 -78.44,-25.461 -34.06,0 -61.68,9.723 -82.81,29.211 -21.17,19.57 -31.72,44.379 -31.72,74.379 h 53.75 c 0.62,-18.129 6.13,-32.34 16.56,-42.66 10.51,-10.231 25.24,-15.309 44.22,-15.309 17.7,0 31.17,3.95 40.47,11.879 9.26,8 13.91,18.75 13.91,32.18 z" /><path
         id="path78"
         style="fill:#005596;fill-opacity:1;fill-rule:nonzero;stroke:none"
         d="m 2404.96,427.07 c 20.39,26.328 46.41,39.532 77.97,39.532 57.81,0 87.11,-38.551 87.97,-115.622 V 133.789 h -53.28 V 348.48 c 0,25.622 -4.3,43.79 -12.82,54.532 -8.55,10.82 -21.36,16.25 -38.43,16.25 -13.36,0 -25.32,-4.461 -35.94,-13.282 -10.55,-8.871 -19.02,-20.468 -25.47,-34.851 v -237.34 h -53.44 v 463.91 h 53.44 z" /></g></g></svg>